<svg width="50" height="50" version="1.1" viewBox="0 0 13.23 13.23" xmlns="http://www.w3.org/2000/svg">
<g transform="translate(-6.56 -264.8)">
<path d="m19.38 277.9c-0.1299-0.03-0.2672-0.0941-0.3663-0.1329-0.8922-0.3494-1.428 0-1.715-0.5746-0.2873-0.5746-0.06383-0.4788-0.383-0.8299-0.3192-0.3511-0.4469 0.0639-0.4788-0.5427-0.03192-0.6065 0.03192-0.5426-0.1596-0.9576-0.1915-0.415-0.1915-1.245-0.7661-0.8299-0.5746 0.415-0.6384 0.0958-1.117 0.2873-0.4788 0.1915-0.1596 0.9895-0.8299 0.8619-0.6703-0.1276-1.085-0.3511-1.085-0.3511s-0.1277-0.0958-0.2234-0.5746c-0.09576-0.4788-0.2873-0.5426-0.3511-0.798-0.06384-0.2554 0.2234 0-0.03193-0.5107-0.2554-0.5107-0.03192-0.6384-0.4788-0.6384-0.4469 0-1.021-0.0319-1.436 0.0319-0.415 0.064-0.7661 0.3831-0.8938-0.1915-0.1277-0.5746 0.2234-1.277 0.06384-1.436-0.1596-0.1597-0.5107-0.4469-1.053-0.8618-0.5426-0.415-1.085-0.2873-0.9257-0.8299 0.1596-0.5426 0.2234-0.5426-0.03192-0.798-0.2554-0.2554-0.5579-0.3192-0.5579-0.3192v-1.99h9.961l0.01593-1.122h2.266v1.122c0.3372-8e-3 0.6658-0.0138 0.9861-0.0174l-1e-6 12.07s-0.2777-0.0324-0.4076-0.0624z" fill="#b3b3b3"/>
</g>
</svg>
