<?xml version="1.0" encoding="UTF-8" standalone="no"?>
<!-- Created with Inkscape (http://www.inkscape.org/) -->

<svg
   xmlns:dc="http://purl.org/dc/elements/1.1/"
   xmlns:cc="http://creativecommons.org/ns#"
   xmlns:rdf="http://www.w3.org/1999/02/22-rdf-syntax-ns#"
   xmlns:svg="http://www.w3.org/2000/svg"
   xmlns="http://www.w3.org/2000/svg"
   xmlns:sodipodi="http://sodipodi.sourceforge.net/DTD/sodipodi-0.dtd"
   xmlns:inkscape="http://www.inkscape.org/namespaces/inkscape"
   width="80mm"
   height="10mm"
   viewBox="0 0 80 10"
   version="1.1"
   id="svg8"
   inkscape:version="0.92.4 (unknown)"
   sodipodi:docname="border.svg">
  <defs
     id="defs2" />
  <sodipodi:namedview
     id="base"
     pagecolor="#ffffff"
     bordercolor="#666666"
     borderopacity="1.0"
     inkscape:pageopacity="0.0"
     inkscape:pageshadow="2"
     inkscape:zoom="3.959798"
     inkscape:cx="138.93753"
     inkscape:cy="-14.101822"
     inkscape:document-units="mm"
     inkscape:current-layer="layer1"
     showgrid="false"
     inkscape:window-width="1871"
     inkscape:window-height="1025"
     inkscape:window-x="49"
     inkscape:window-y="27"
     inkscape:window-maximized="1" />
  <metadata
     id="metadata5">
    <rdf:RDF>
      <cc:Work
         rdf:about="">
        <dc:format>image/svg+xml</dc:format>
        <dc:type
           rdf:resource="http://purl.org/dc/dcmitype/StillImage" />
        <dc:title></dc:title>
      </cc:Work>
    </rdf:RDF>
  </metadata>
  <g
     inkscape:label="Layer 1"
     inkscape:groupmode="layer"
     id="layer1"
     transform="translate(0,-287)">
    <path
       style="fill:#71c837;fill-opacity:1;stroke:none;stroke-width:0.26458332px;stroke-linecap:butt;stroke-linejoin:miter;stroke-opacity:1"
       d="m 0,294 c 0,0 1.7228879,-1.11479 2.8731474,-3.34765 1.1502595,-2.23286 3.8085908,-2.20497 5.0113035,-2.20497 1.202713,0 0.3756654,2.20318 1.202713,2.93996 0.8270476,0.73678 2.2644511,0.28899 3.3408691,0.93544 1.076418,0.64645 0.935443,3.34087 2.80633,2.93997 1.870887,-0.40091 3.073599,-3.47451 4.677217,-5.07812 1.603617,-1.60362 1.469982,2.40542 2.27179,3.20723 0.801809,0.80181 1.336348,1.33635 3.0736,2.27179 1.737253,0.93545 15.635267,1.20272 16.837981,0.40091 1.202711,-0.80181 3.875408,-0.80181 4.944486,-4.27632 1.069078,-3.4745 0.400904,-5.47902 3.207234,-3.60813 2.806329,1.87088 0.801809,4.14267 1.069078,5.74629 0.267269,1.60362 8.418989,1.73725 9.354434,1.60362 0.935442,-0.13364 2.53906,-1.87089 5.479026,-2.6727 2.939962,-0.80181 4.677214,0 7.216274,2.00452 C 75.904544,296.86637 79.999281,294 79.999281,294 L 80,297 H 0 Z"
       id="path815"
       inkscape:connector-curvature="0"
       sodipodi:nodetypes="czszzccsccscscsccccc" />
  </g>
</svg>
