<?xml version="1.0" encoding="UTF-8"?>
<svg version="1.1" viewBox="0 0 442.41 323" xmlns="http://www.w3.org/2000/svg">
  <defs>
    <style>.cls-1 {
        fill: #257180;
        font-size: 172px;
      }

      .cls-1, .cls-2 {
        font-family: Arvo, Arvo;
      }

      .cls-3, .cls-2 {
        fill: #cb6040;
      }

      .cls-2 {
        font-size: 82px;
      }

      .cls-4 {
        fill: #f2e5bf;
      }</style>
  </defs>
  <g transform="translate(-18.47,-23)" data-name="primary logo">
    <circle class="cls-4" cx="239.5" cy="184.5" r="161.5"/>
    <path class="cls-3" d="m460.85 183.93c-0.42-1.25-5.17-4.81-5.86-5.42-7.52-6.49-15.82-12.03-24.07-17.53-4.89-3.27-9.75-6.57-14.69-9.78-4.72-3.06-9.41-6.18-13.77-9.74-1.05-0.86-2.69-1.85-3.44-2.98-7.24-10.92-0.98-25.44-18.15-36.93-21.94-14.69-45.81 1.54-58.75 20.12-5.42 6.25-7.74 12.07-17.25 9.51-36.18-5.07-73.6-4.09-108.81 6.19-41.95 13.03-61.84 27.78-108.38 19.14-22.63-3.3-46.52-10.34-69.21-4.77 20.87 3.24 34.68 10.06 55.28 15.16-12.82-0.02-19.39 0.47-31.77 3.25 13.49 0.91 26.24 5.24 38.61 10.51 15.15 6.22 31.23 10.08 45.59 18.07 14.83 8.74 28.26 19.77 43.52 27.83 12.36 6.93 25.96 11.51 38.22 18.55-3.63 2.48-7.34 4.56-11.07 6.84-3.67 1.99-7.62 4.23-8.46 8.6-1.02 7.19-0.13 14.56-0.45 21.81-0.29 7.99-1.32 15.93-2.11 23.88-0.63 11.3-6.52 29.21 7.78 34.1 12.37 4.7 25.66 2.13 38.48 2.5 2.56 0.24 4.5-2.16 7.01-0.4l0.3-0.29c-4.81-7.8-14.49-5.29-22.08-5.18-10.6-0.65-24.03-6.63-23.67-18.93-0.33-8.72 0.8-17.35 1.46-26.03 0.65-7.59 0.34-15.47 2.76-22.77 1.05-2.8 2.33-5.55 3.23-8.43 0.52-1.17 1.1-2.44 2.01-3.28 3.6-3.07 7.07-6.44 11.07-8.97 2.05-1.18 4.28 0.24 6.22 0.92 1.29 1.71 0.78 4.46 0.95 6.53-0.06 6.43-2.59 12.42-5.12 18.2-0.59 2-0.27 3.78 0.87 5.67 8.87 14.55 17.85 29.14 24.01 45.1 3.3 6.02-0.78 15.62 7.81 17.92 19.94 0.1 39.94-1.67 59.96-0.91 0 0 9.26 1.05 0.22-2.15-30.59-11.01-49.31 8.4-66.8-29.59-9-17.26-21.5-39.02-11.96-58.46 0.92-2.41 1.65-2.13 3.92-1.77 4.82 0.6 9.85 1.09 14.61 1.16 42.42 1.5 107.53-34.85 118.31-78.9 7.46-20.32 24.66-23.11 42.46-13.19 14.98 7.36 29.88 14.9 44.75 22.48 1.26 0.64 2.52 1.28 3.77 1.92 0.5 0.25 2.44 1.37 2.71 0.65 0.02-0.07 0.02-0.15-0.01-0.25z"/>
  </g>
</svg>
